<svg xmlns="http://www.w3.org/2000/svg" xmlns:xlink="http://www.w3.org/1999/xlink" viewBox="0 0 176.44 239.85"><defs><style>.cls-1{fill:none;}.cls-2{clip-path:url(#clip-path);}.cls-3{clip-path:url(#clip-path-2);}.cls-4,.cls-6{fill:#fff;}.cls-5{fill:#dbd7c5;}.cls-6{font-size:31.87px;font-family:Montserrat-Bold, Montserrat;font-weight:700;}.cls-7{letter-spacing:0.01em;}.cls-8{letter-spacing:0em;}</style><clipPath id="clip-path" transform="translate(-6.98 -20.58)"><rect class="cls-1" width="190.41" height="190.41"/></clipPath><clipPath id="clip-path-2" transform="translate(-6.98 -20.58)"><rect class="cls-1" x="7.55" y="12.82" width="175.31" height="177.59"/></clipPath></defs><title>Asset 4</title><g id="Layer_2" data-name="Layer 2"><g id="Layer_1-2" data-name="Layer 1"><g class="cls-2"><g class="cls-3"><path class="cls-4" d="M13.75,143.77v46.64h5.83v-2.89a2.92,2.92,0,0,1,2.92-2.92h2.91a2.92,2.92,0,0,1,2.92,2.92v2.89h2.92v-2.89a2.91,2.91,0,0,1,2.91-2.92h2.92A2.91,2.91,0,0,1,40,187.52v2.89h2.92V143.77Zm14.58,35a2.92,2.92,0,0,1-2.92,2.92H22.5a2.92,2.92,0,0,1-2.92-2.92v-2.92a2.91,2.91,0,0,1,2.92-2.91h2.91a2.91,2.91,0,0,1,2.92,2.91Zm0-11.67A2.92,2.92,0,0,1,25.41,170H22.5a2.92,2.92,0,0,1-2.92-2.92v-2.91a2.92,2.92,0,0,1,2.92-2.92h2.91a2.92,2.92,0,0,1,2.92,2.92Zm0-11.66a2.92,2.92,0,0,1-2.92,2.92H22.5a2.92,2.92,0,0,1-2.92-2.92v-2.92a2.91,2.91,0,0,1,2.92-2.91h2.91a2.91,2.91,0,0,1,2.92,2.91ZM40,178.77a2.91,2.91,0,0,1-2.91,2.92H34.16a2.91,2.91,0,0,1-2.91-2.92v-2.92a2.91,2.91,0,0,1,2.91-2.91h2.92A2.91,2.91,0,0,1,40,175.85Zm0-11.67A2.91,2.91,0,0,1,37.08,170H34.16a2.91,2.91,0,0,1-2.91-2.92v-2.91a2.91,2.91,0,0,1,2.91-2.92h2.92A2.91,2.91,0,0,1,40,164.19Zm0-11.66a2.91,2.91,0,0,1-2.91,2.92H34.16a2.91,2.91,0,0,1-2.91-2.92v-2.92a2.91,2.91,0,0,1,2.91-2.91h2.92A2.91,2.91,0,0,1,40,152.52Z" transform="translate(-6.98 -20.58)"/><path class="cls-4" d="M176.27,87.3a5.8,5.8,0,0,1-1.55,4.47,5.87,5.87,0,0,1-7.92.66l-1.19-.91L94.86,37,25.26,90.63h0l-2.33,1.8A5.87,5.87,0,0,1,15,91.77a5.9,5.9,0,0,1,.69-8.65L90.85,24.31l4-3.73,4.2,3.89,75,58.65A5.82,5.82,0,0,1,176.27,87.3Z" transform="translate(-6.98 -20.58)"/><rect class="cls-5" x="152.58" y="164.02" width="5.83" height="5.83"/><rect class="cls-5" x="152.58" y="140.69" width="5.83" height="5.83"/><rect class="cls-5" x="152.58" y="117.36" width="5.83" height="5.83"/><path class="cls-4" d="M159.72,94.41v26H147.9V97.11A2.91,2.91,0,0,0,145,94.2H45.83a2.91,2.91,0,0,0-2.92,2.91v40.83H30V94.41l64.86-50Zm-41.08-7.93L115,81.29a5,5,0,0,0,3.36-5c0-3.5-2.57-5.62-6.72-5.62h-6.5V86.48h2.93v-4.6h3.57c.2,0,.41,0,.61,0l3.22,4.62Zm-15.5,0L96,70.69H93.13L86,86.48h3l1.56-3.65h7.9l1.58,3.65Zm-17.89,0-3.63-5.19a5,5,0,0,0,3.37-5c0-3.5-2.58-5.62-6.73-5.62h-6.5V86.48H74.7v-4.6h3.56c.2,0,.41,0,.61,0l3.22,4.62Z" transform="translate(-6.98 -20.58)"/><path class="cls-4" d="M142.07,100v160.4H115.82V231.26a2.91,2.91,0,0,0-2.91-2.91h-35A2.91,2.91,0,0,0,75,231.26v29.17H48.75V100Zm-5.83,84.57V167.1a2.91,2.91,0,0,0-2.92-2.91h-17.5a2.91,2.91,0,0,0-2.91,2.91v17.5a2.91,2.91,0,0,0,2.91,2.92h17.5A2.92,2.92,0,0,0,136.24,184.6Zm0-29.16v-17.5a2.92,2.92,0,0,0-2.92-2.92h-17.5a2.91,2.91,0,0,0-2.91,2.92v17.5a2.91,2.91,0,0,0,2.91,2.92h17.5A2.92,2.92,0,0,0,136.24,155.44Zm0-29.16v-17.5a2.92,2.92,0,0,0-2.92-2.92h-17.5a2.91,2.91,0,0,0-2.91,2.92v17.5a2.91,2.91,0,0,0,2.91,2.91h17.5A2.91,2.91,0,0,0,136.24,126.28ZM107.07,184.6V167.1a2.91,2.91,0,0,0-2.91-2.91H86.65a2.91,2.91,0,0,0-2.91,2.91v17.5a2.91,2.91,0,0,0,2.91,2.92h17.51A2.91,2.91,0,0,0,107.07,184.6Zm0-29.16v-17.5a2.91,2.91,0,0,0-2.91-2.92H86.65a2.91,2.91,0,0,0-2.91,2.92v17.5a2.91,2.91,0,0,0,2.91,2.92h17.51A2.91,2.91,0,0,0,107.07,155.44Zm0-29.16v-17.5a2.91,2.91,0,0,0-2.91-2.92H86.65a2.91,2.91,0,0,0-2.91,2.92v17.5a2.91,2.91,0,0,0,2.91,2.91h17.51A2.91,2.91,0,0,0,107.07,126.28ZM77.91,184.6V167.1A2.91,2.91,0,0,0,75,164.19H57.49a2.91,2.91,0,0,0-2.92,2.91v17.5a2.92,2.92,0,0,0,2.92,2.92H75A2.92,2.92,0,0,0,77.91,184.6Zm0-29.16v-17.5A2.92,2.92,0,0,0,75,135H57.49a2.92,2.92,0,0,0-2.92,2.92v17.5a2.92,2.92,0,0,0,2.92,2.92H75A2.92,2.92,0,0,0,77.91,155.44Zm0-29.16v-17.5A2.92,2.92,0,0,0,75,105.86H57.49a2.92,2.92,0,0,0-2.92,2.92v17.5a2.91,2.91,0,0,0,2.92,2.91H75A2.91,2.91,0,0,0,77.91,126.28Z" transform="translate(-6.98 -20.58)"/><rect class="cls-5" x="111.76" y="149.44" width="11.66" height="11.67"/><rect class="cls-5" x="111.76" y="120.28" width="11.66" height="11.66"/><rect class="cls-5" x="111.76" y="91.12" width="11.66" height="11.66"/><path class="cls-4" d="M111.51,73.17c2.57,0,3.91,1.15,3.91,3.14s-1.34,3.16-3.91,3.16h-3.43v-6.3Z" transform="translate(-6.98 -20.58)"/><rect class="cls-5" x="82.59" y="149.44" width="11.66" height="11.67"/><rect class="cls-5" x="82.59" y="120.28" width="11.66" height="11.66"/><rect class="cls-5" x="82.59" y="91.12" width="11.66" height="11.66"/><polygon class="cls-4" points="87.56 53.05 90.54 59.95 84.61 59.95 87.56 53.05"/><path class="cls-4" d="M78.13,73.17c2.57,0,3.9,1.15,3.9,3.14s-1.33,3.16-3.9,3.16H74.7v-6.3Z" transform="translate(-6.98 -20.58)"/><rect class="cls-5" x="53.42" y="149.44" width="11.67" height="11.67"/><rect class="cls-5" x="53.42" y="120.28" width="11.67" height="11.66"/><rect class="cls-5" x="53.42" y="91.12" width="11.67" height="11.66"/><path class="cls-5" d="M40,187.52v2.92a2.91,2.91,0,0,1-2.91,2.91H34.16a2.91,2.91,0,0,1-2.92-2.91v-2.92a2.92,2.92,0,0,1,2.92-2.92h2.92A2.91,2.91,0,0,1,40,187.52Z" transform="translate(-6.98 -20.58)"/><path class="cls-5" d="M40,175.85v2.92a2.91,2.91,0,0,1-2.91,2.92H34.16a2.92,2.92,0,0,1-2.92-2.92v-2.92a2.91,2.91,0,0,1,2.92-2.91h2.92A2.91,2.91,0,0,1,40,175.85Z" transform="translate(-6.98 -20.58)"/><path class="cls-5" d="M40,164.19v2.91A2.91,2.91,0,0,1,37.08,170H34.16a2.92,2.92,0,0,1-2.92-2.92v-2.91a2.92,2.92,0,0,1,2.92-2.92h2.92A2.91,2.91,0,0,1,40,164.19Z" transform="translate(-6.98 -20.58)"/><path class="cls-5" d="M40,152.52v2.92a2.91,2.91,0,0,1-2.91,2.92H34.16a2.92,2.92,0,0,1-2.92-2.92v-2.92a2.91,2.91,0,0,1,2.92-2.91h2.92A2.91,2.91,0,0,1,40,152.52Z" transform="translate(-6.98 -20.58)"/><path class="cls-5" d="M28.33,187.52v2.92a2.91,2.91,0,0,1-2.91,2.91H22.5a2.91,2.91,0,0,1-2.92-2.91v-2.92a2.92,2.92,0,0,1,2.92-2.92h2.92A2.91,2.91,0,0,1,28.33,187.52Z" transform="translate(-6.98 -20.58)"/><rect class="cls-5" x="12.6" y="152.36" width="8.75" height="8.75" rx="2.91" ry="2.91"/><path class="cls-5" d="M28.33,164.19v2.91A2.91,2.91,0,0,1,25.42,170H22.5a2.92,2.92,0,0,1-2.92-2.92v-2.91a2.92,2.92,0,0,1,2.92-2.92h2.92A2.91,2.91,0,0,1,28.33,164.19Z" transform="translate(-6.98 -20.58)"/><rect class="cls-5" x="12.6" y="129.03" width="8.75" height="8.75" rx="2.91" ry="2.91"/><rect class="cls-5" x="152.58" y="117.36" width="5.83" height="5.83"/><rect class="cls-5" x="152.58" y="140.69" width="5.83" height="5.83"/><rect class="cls-5" x="152.58" y="164.02" width="5.83" height="5.83"/><path class="cls-4" d="M147.9,126.28v74.37h29.16V126.28Zm23.33,67.08a2.91,2.91,0,0,1-2.91,2.92H156.65a2.92,2.92,0,0,1-2.92-2.92V181.7a2.92,2.92,0,0,1,2.92-2.92h11.67a2.91,2.91,0,0,1,2.91,2.92Zm0-23.33a2.91,2.91,0,0,1-2.91,2.91H156.65a2.91,2.91,0,0,1-2.92-2.91V158.36a2.92,2.92,0,0,1,2.92-2.92h11.67a2.91,2.91,0,0,1,2.91,2.92Zm0-23.34a2.91,2.91,0,0,1-2.91,2.92H156.65a2.92,2.92,0,0,1-2.92-2.92V135a2.91,2.91,0,0,1,2.92-2.91h11.67a2.91,2.91,0,0,1,2.91,2.91Z" transform="translate(-6.98 -20.58)"/></g></g><text class="cls-6" transform="translate(0 209.8)"><tspan class="cls-7">h</tspan><tspan class="cls-8" x="22.21" y="0">o</tspan><tspan class="cls-7" x="43.09" y="0">m</tspan><tspan x="76.71" y="0">e.RAR</tspan></text></g></g></svg>